<svg xmlns="http://www.w3.org/2000/svg" viewBox="0 0 256 256" role="img" aria-label="LetsDoIT">
  <defs>
    <linearGradient id="bg" x1="0%" y1="0%" x2="100%" y2="100%">
      <stop offset="0%" stop-color="#0a0a0a"/>
      <stop offset="100%" stop-color="#1c1c1c"/>
    </linearGradient>
    <linearGradient id="accent" x1="0%" y1="100%" x2="100%" y2="0%">
      <stop offset="0%" stop-color="#f4f4f5"/>
      <stop offset="100%" stop-color="#a1a1aa"/>
    </linearGradient>
  </defs>
  <!-- Rounded app tile -->
  <rect x="8" y="8" width="240" height="240" rx="56" fill="url(#bg)"/>
  <rect x="8" y="8" width="240" height="240" rx="56" fill="none" stroke="#3f3f46" stroke-width="2"/>
  <!-- Open book -->
  <path d="M52 86c28-14 48-10 76 8 28-18 48-22 76-8v92c-28-12-48-8-76 10-28-18-48-22-76-10V86z" fill="none" stroke="url(#accent)" stroke-width="10" stroke-linejoin="round"/>
  <path d="M128 94v92" stroke="#52525b" stroke-width="6" stroke-linecap="round"/>
  <!-- AI pulse node -->
  <circle cx="128" cy="64" r="14" fill="#fafafa"/>
  <circle cx="128" cy="64" r="22" fill="none" stroke="#fafafa" stroke-width="3" opacity="0.35"/>
  <!-- Signal arcs (online / offline hybrid) -->
  <path d="M96 54c8-14 24-22 32-22s24 8 32 22" fill="none" stroke="#a1a1aa" stroke-width="5" stroke-linecap="round"/>
  <path d="M84 42c14-20 36-30 44-30s30 10 44 30" fill="none" stroke="#52525b" stroke-width="4" stroke-linecap="round" opacity="0.8"/>
  <!-- Base caption bar -->
  <rect x="72" y="198" width="112" height="10" rx="5" fill="#3f3f46"/>
  <rect x="92" y="214" width="72" height="6" rx="3" fill="#27272a"/>
</svg>
